<?xml version="1.0" encoding="UTF-8"?>
<svg id="Capa_2" data-name="Capa 2" xmlns="http://www.w3.org/2000/svg" xmlns:xlink="http://www.w3.org/1999/xlink" viewBox="0 0 2070.91 1108.27">
  <defs>
    <style>
      .cls-1 {
        fill: url(#Degradado_sin_nombre_11-2);
      }

      .cls-2 {
        fill: url(#Degradado_sin_nombre_11);
      }

      .cls-3 {
        fill: #2c3648;
      }
    </style>
    <linearGradient id="Degradado_sin_nombre_11" data-name="Degradado sin nombre 11" x1="554.13" y1="378.68" x2="905.06" y2="378.68" gradientUnits="userSpaceOnUse">
      <stop offset="0" stop-color="#28afaf"/>
      <stop offset="1" stop-color="#2a374a"/>
    </linearGradient>
    <linearGradient id="Degradado_sin_nombre_11-2" data-name="Degradado sin nombre 11" x1="306" y1="802.27" x2="554.13" y2="554.14" xlink:href="#Degradado_sin_nombre_11"/>
  </defs>
  <g id="Capa_1-2" data-name="Capa 1">
    <g>
      <path class="cls-2" d="M905.06,554.14c0-193.81-157.12-350.91-350.93-350.91v350.91h350.93Z"/>
      <path class="cls-1" d="M203.21,554.14c0,193.81,157.12,350.91,350.93,350.91v-350.91H203.21Z"/>
      <polygon class="cls-3" points="1108.27 550.51 557.76 550.51 557.76 0 550.51 0 550.51 550.51 0 550.51 0 557.76 550.51 557.76 550.51 1108.27 557.76 1108.27 557.76 557.76 1108.27 557.76 1108.27 550.51"/>
      <g>
        <path class="cls-3" d="M651.47,644.55h114.65c59.65,0,88.02,23.16,88.02,66.01s-27.5,65.14-87.73,65.14h-74.98v59.36h-39.96v-190.51ZM763.23,748.2c35.61,0,52.69-11.58,52.69-36.19s-15.05-35.9-52.98-35.9h-71.51v72.09h71.8Z"/>
        <path class="cls-3" d="M877.57,763.83c0-37.64,27.79-74.7,98.15-74.7s98.15,37.06,98.15,74.7-27.22,74.12-98.15,74.12-98.15-36.19-98.15-74.12ZM1036.81,763.83c0-23.74-16.5-45.75-61.09-45.75s-61.09,22.01-61.09,45.75,16.22,45.17,61.09,45.17,61.09-21.42,61.09-45.17Z"/>
        <path class="cls-3" d="M1098.75,787.58h35.03c.29,11.87,6.08,24.03,50.67,24.03s53.85-8.4,53.85-19.69c0-5.79-2.32-10.13-11.58-12.16-10.13-2.03-31.85-2.61-50.38-3.18-29.53-.87-51.24-4.34-62.25-10.43-10.71-5.79-15.35-16.79-15.35-28.66,0-28.96,30.98-48.35,85.7-48.35,68.04,0,82.52,24.32,82.52,51.25h-35.03c-.29-14.19-7.24-24.9-46.33-24.9-33.87,0-49.8,6.66-49.8,20.27,0,5.79,2.9,9.84,12.16,11.87,10.14,2.61,28.66,2.61,51.25,3.77,25.48,1.16,44.3,2.89,56.75,8.1,13.32,6.08,19.4,17.66,19.4,31.27,0,22-16.5,47.19-90.91,47.19s-85.7-28.95-85.7-50.38Z"/>
        <path class="cls-3" d="M1304.01,637.89h39.09v33.58h-39.09v-33.58ZM1304.87,692.03h37.06v143.03h-37.06v-143.03Z"/>
        <path class="cls-3" d="M1371.75,763.54c0-40.54,31.55-74.41,94.38-74.41s87.44,29.82,87.44,60.8h-33.87c-.29-16.21-14.48-31.85-52.99-31.85s-57.9,19.98-57.9,45.46c0,24.03,15.05,45.46,56.46,45.46s54.72-15.05,55-31.27h33.88c0,29.82-23.45,60.22-90.34,60.22s-92.06-38.22-92.06-74.41Z"/>
        <path class="cls-3" d="M1582.8,637.89h39.09v33.58h-39.09v-33.58ZM1583.66,692.03h37.06v143.03h-37.06v-143.03Z"/>
        <path class="cls-3" d="M1650.54,763.83c0-37.64,27.79-74.7,98.15-74.7s98.14,37.06,98.14,74.7-27.21,74.12-98.14,74.12-98.15-36.19-98.15-74.12ZM1809.77,763.83c0-23.74-16.5-45.75-61.08-45.75s-61.09,22.01-61.09,45.75,16.21,45.17,61.09,45.17,61.08-21.42,61.08-45.17ZM1758.24,633.83h41.69l-39.38,41.69h-32.14l29.82-41.69Z"/>
        <path class="cls-3" d="M1874.61,692.03h37.06l-.58,41.98h.58c10.71-29.24,33.88-44.88,80.2-44.88,58.49,0,79.04,28.08,79.04,63.12v82.81h-37.06v-72.96c0-25.48-13.03-42.56-55.88-42.56-34.74,0-66.31,16.5-66.31,51.25v64.28h-37.06v-143.03Z"/>
        <g>
          <path class="cls-3" d="M653.57,1019.96h36.2c0,18.24,10.71,37.35,70.35,37.35s71.81-14.19,71.81-30.69c0-9.56-5.8-15.64-17.66-18.82-13.61-3.18-44.88-4.05-67.18-5.21-24.9-1.45-55.59-4.06-71.51-11.58-14.18-6.66-23.16-20.56-23.16-38.5,0-34.17,33.58-62.54,106.84-62.54,87.44,0,103.65,31.56,103.65,65.72h-36.19c0-21.71-16.51-35.61-67.46-35.61-46.62,0-67.17,11.58-67.17,29.53,0,9.55,5.21,14.77,14.76,18.24,11.87,4.05,44.01,5.21,65.43,6.37,26.93,1.45,54.43,3.18,71.51,9.26,17.95,6.95,28.08,22.01,28.08,40.24,0,28.96-16.5,63.7-111.76,63.7s-106.55-42.27-106.55-67.46Z"/>
          <path class="cls-3" d="M899.65,1041.68c0-27.8,22.88-39.38,58.77-39.38h85.99v-2.89c0-23.45-15.93-35.03-55.3-35.03-37.35,0-49.51,10.42-49.51,22.58,0,.87,0,1.74.29,3.48h-35.32c-.29-2.61-.29-4.63-.29-5.21,0-27.8,26.06-47.19,85.7-47.19s91.49,24.9,91.49,64.85v81.07h-37.06c.87-9.84,1.45-24.61,1.74-34.45h-.29c-6.37,22.87-26.92,37.06-74.98,37.06-52.11,0-71.23-22.3-71.23-44.88ZM1044.42,1025.17v-.87h-77.31c-21.71,0-33.58,2.32-33.58,15.92,0,9.55,8.1,20.27,44.58,20.27,45.75,0,66.31-18.53,66.31-35.32Z"/>
          <path class="cls-3" d="M1126.91,1028.36v-58.48h-28.66v-28.96h23.16c6.09,0,8.11-3.18,8.98-10.71l2.32-21.71h31.27v32.43h81.64v28.96h-81.64v56.75c0,20.56,10.42,30.11,46.33,30.11,11.87,0,26.63-1.74,34.16-3.18v28.08c-6.37,2.03-22.01,4.34-38.22,4.34-59.64,0-79.33-24.61-79.33-57.62Z"/>
          <path class="cls-3" d="M1447.12,1021.12h-147.67c2.61,21.71,16.51,39.38,60.23,39.38,37.92,0,51.24-11.29,53.56-23.16h33.88c-1.74,24.9-26.35,49.51-87.44,49.51-75.57,0-97.57-37.64-97.57-73.25,0-45.75,35.03-75.57,95.25-75.57s89.76,27.22,89.76,71.51v11.58ZM1413.24,997.96c0-19.11-15.35-33.58-54.43-33.58-35.9,0-53.27,12.16-58.19,34.45h112.62v-.87Z"/>
          <path class="cls-3" d="M1475.76,881.28h37.06v202.67h-37.06v-202.67Z"/>
          <path class="cls-3" d="M1545.24,886.78h39.09v33.58h-39.09v-33.58ZM1546.1,940.92h37.06v143.03h-37.06v-143.03Z"/>
          <path class="cls-3" d="M1632.09,1028.36v-58.48h-28.66v-28.96h23.16c6.09,0,8.11-3.18,8.98-10.71l2.32-21.71h31.27v32.43h81.64v28.96h-81.64v56.75c0,20.56,10.42,30.11,46.33,30.11,11.87,0,26.63-1.74,34.16-3.18v28.08c-6.37,2.03-22.01,4.34-38.22,4.34-59.64,0-79.33-24.61-79.33-57.62Z"/>
          <path class="cls-3" d="M1771.63,1041.68c0-27.8,22.88-39.38,58.77-39.38h85.99v-2.89c0-23.45-15.93-35.03-55.3-35.03-37.35,0-49.51,10.42-49.51,22.58,0,.87,0,1.74.29,3.48h-35.32c-.29-2.61-.29-4.63-.29-5.21,0-27.8,26.06-47.19,85.7-47.19s91.49,24.9,91.49,64.85v81.07h-37.06c.87-9.84,1.45-24.61,1.74-34.45h-.29c-6.37,22.87-26.92,37.06-74.98,37.06-52.11,0-71.23-22.3-71.23-44.88ZM1916.4,1025.17v-.87h-77.31c-21.71,0-33.58,2.32-33.58,15.92,0,9.55,8.1,20.27,44.58,20.27,45.75,0,66.31-18.53,66.31-35.32Z"/>
          <path class="cls-3" d="M1983.54,881.28h37.06v202.67h-37.06v-202.67Z"/>
        </g>
      </g>
    </g>
  </g>
</svg>